<?xml version="1.0" standalone="no"?>
<!DOCTYPE svg PUBLIC "-//W3C//DTD SVG 20010904//EN"
 "http://www.w3.org/TR/2001/REC-SVG-20010904/DTD/svg10.dtd">
<svg version="1.0" xmlns="http://www.w3.org/2000/svg"
 width="525.000000pt" height="525.000000pt" viewBox="0 0 525.000000 525.000000"
 preserveAspectRatio="xMidYMid meet">
<metadata>
Created by potrace 1.14, written by Peter Selinger 2001-2017
</metadata>
<g transform="translate(0.000000,525.000000) scale(0.100000,-0.100000)"
fill="#000000" stroke="none">
<path d="M611 5194 c0 -11 3 -14 6 -6 3 7 2 16 -1 19 -3 4 -6 -2 -5 -13z"/>
<path d="M610 5136 c0 -8 4 -17 9 -20 5 -4 7 3 4 14 -6 23 -13 26 -13 6z"/>
<path d="M612 5080 c0 -14 2 -19 5 -12 2 6 2 18 0 25 -3 6 -5 1 -5 -13z"/>
<path d="M612 5015 c-1 -19 0 -35 2 -35 8 0 13 49 6 60 -4 6 -7 -5 -8 -25z"/>
<path d="M654 4930 l-30 -5 0 -1622 c0 -893 3 -1623 7 -1623 7 0 17 -26 25
-64 2 -10 21 -50 41 -89 41 -77 154 -200 233 -253 45 -31 158 -95 163 -92 1 1
31 -8 67 -20 87 -29 180 -43 325 -48 66 -3 122 -8 125 -10 2 -3 5 -24 7 -47 2
-44 12 -131 18 -157 2 -8 6 -25 9 -38 9 -39 17 -65 38 -112 39 -88 52 -115 58
-120 3 -3 14 -22 25 -43 31 -60 119 -161 193 -223 64 -53 158 -110 175 -106 4
1 7 -2 7 -6 0 -6 80 -41 110 -48 3 0 16 -5 30 -11 33 -14 89 -23 172 -28 37
-3 71 -5 75 -6 4 -1 17 -1 29 0 21 1 21 5 18 119 -5 159 -15 255 -34 332 -6
25 -12 51 -12 58 -1 6 -5 12 -10 12 -4 0 -7 3 -6 8 3 15 -16 68 -39 112 -48
88 -98 123 -178 126 -49 2 -50 1 -120 -70 -38 -39 -81 -88 -95 -109 -14 -20
-30 -37 -37 -37 -6 0 -13 -5 -15 -12 -6 -17 -61 5 -64 26 -1 10 14 36 34 59
20 23 50 56 67 75 16 18 36 42 45 53 8 11 28 34 43 52 86 97 135 204 141 311
2 35 6 68 10 74 3 6 2 13 -4 17 -6 4 -8 10 -6 14 7 10 -23 123 -36 139 -6 6
-7 12 -4 12 11 0 -33 60 -78 108 -22 23 -44 42 -48 42 -5 0 -20 8 -35 17 -41
27 -47 27 -223 20 -86 -3 -223 40 -304 96 -48 33 -136 120 -136 134 0 7 -4 13
-9 13 -10 0 -75 129 -86 170 -6 23 -18 112 -19 140 l-2 35 1247 0 c686 0 1250
-2 1253 -5 8 -9 -13 -142 -25 -157 -6 -7 -9 -13 -5 -13 10 0 -41 -107 -76
-157 -77 -113 -220 -213 -339 -239 -89 -18 -152 -21 -214 -9 -88 17 -181 8
-215 -20 -8 -7 -29 -20 -45 -28 -49 -25 -148 -127 -192 -197 -36 -59 -76 -147
-75 -167 0 -4 -4 -15 -9 -24 -4 -9 -11 -61 -14 -115 -4 -54 -8 -108 -9 -119
-1 -11 0 -24 2 -29 3 -5 6 -42 7 -82 2 -40 8 -95 14 -121 6 -26 13 -61 15 -78
2 -16 5 -31 6 -32 4 -4 6 -15 14 -64 9 -52 24 -82 33 -62 10 27 86 132 153
214 77 93 221 237 285 284 22 16 42 32 45 36 3 4 17 10 31 14 18 4 30 1 43
-14 21 -24 30 -14 -174 -204 -105 -97 -146 -148 -194 -240 -49 -95 -61 -142
-61 -247 0 -77 4 -106 24 -153 13 -31 28 -58 35 -58 25 -3 52 4 70 17 11 8 28
14 38 14 10 0 18 5 18 10 0 6 7 10 15 10 22 0 119 63 190 123 92 78 122 114
196 232 51 82 83 151 76 166 -1 3 3 12 9 20 15 19 43 149 48 224 2 33 5 65 5
70 1 6 52 10 134 10 134 -1 227 10 327 39 60 16 240 105 240 117 0 4 8 10 18
13 25 8 145 127 181 180 37 54 101 184 101 206 0 9 5 21 12 28 7 7 9 12 5 12
-3 0 -2 12 3 26 20 50 23 177 21 819 -1 358 -3 1039 -4 1514 l-2 865 -900 -1
c-495 -1 -902 -2 -905 -2 -3 -1 -6 -434 -5 -963 l0 -963 -65 -1 c-36 -1 -70 1
-76 3 -8 3 -11 267 -10 964 1 846 -1 959 -14 960 -8 0 -55 0 -105 -1 -49 0
-94 -1 -100 -1 -5 0 -271 1 -590 1 -319 0 -587 0 -595 0 -8 0 -130 1 -270 2
-140 2 -269 1 -286 -2z m1187 -459 c1 -9 2 -86 4 -171 1 -85 3 -160 3 -166 2
-8 56 -11 177 -10 110 1 175 -3 175 -9 4 -101 2 -353 -2 -361 -4 -6 -75 -9
-181 -9 l-174 0 1 -183 c1 -101 -3 -186 -7 -189 -16 -10 -370 -5 -376 5 -3 6
-6 89 -6 186 0 112 -3 176 -10 177 -5 1 -86 2 -180 3 l-170 1 0 188 0 187 25
1 c14 1 95 2 180 3 l155 1 0 182 0 182 192 -1 c169 -1 193 -3 194 -17z m1961
-220 c3 -1 6 -53 5 -116 -1 -69 2 -116 8 -118 6 -2 61 -3 123 -2 76 2 112 -1
113 -9 3 -54 0 -218 -5 -223 -3 -4 -55 -7 -115 -7 -61 -1 -112 -4 -115 -7 -3
-3 -6 -56 -7 -117 -1 -62 -5 -112 -8 -113 -3 0 -57 -2 -118 -4 -109 -2 -113
-2 -114 19 0 11 -2 63 -3 114 -2 50 -6 95 -10 99 -3 4 -55 7 -114 8 -59 0
-112 3 -117 7 -8 5 -13 169 -6 223 1 6 46 10 116 9 63 0 118 2 123 5 12 8 9
74 -3 83 -7 5 -6 8 0 8 7 0 10 27 9 68 0 37 0 69 2 72 2 4 212 5 236 1z m-733
-1402 l774 -1 23 -25 c19 -21 21 -28 12 -49 -6 -13 -24 -28 -40 -32 -21 -5
-2281 -8 -2383 -3 -30 2 -43 14 -49 44 -3 20 1 34 15 48 18 18 32 19 199 17
99 -2 180 -1 180 2 0 3 111 4 248 2 136 -1 595 -3 1021 -3z m-2028 -1002 c17
-57 70 -137 118 -175 70 -56 156 -75 342 -73 l107 1 4 -34 c8 -72 6 -73 -149
-69 -187 4 -183 3 -288 54 -68 33 -106 65 -151 130 -32 45 -68 119 -57 119 3
0 1 6 -4 13 -18 24 -14 65 9 81 30 21 55 5 69 -47z m3169 5 c0 -33 -11 -67
-52 -149 -27 -55 -101 -123 -163 -149 -132 -57 -131 -57 -315 -57 l-135 0 0
57 -1 57 51 -6 c77 -9 236 -6 275 4 67 18 80 23 80 32 0 5 4 8 9 6 22 -5 103
77 127 128 13 30 24 58 24 64 0 25 25 60 44 63 35 6 56 -13 56 -50z"/>
<path d="M613 1399 c-2 -23 3 -25 10 -4 4 8 3 16 -1 19 -4 3 -9 -4 -9 -15z"/>
<path d="M613 1355 c0 -8 4 -12 9 -9 5 3 6 10 3 15 -9 13 -12 11 -12 -6z"/>
<path d="M610 1295 c0 -8 2 -15 4 -15 2 0 6 7 10 15 3 8 1 15 -4 15 -6 0 -10
-7 -10 -15z"/>
<path d="M610 1240 c0 -11 4 -20 8 -20 4 0 8 9 8 20 0 11 -4 20 -8 20 -4 0 -8
-9 -8 -20z"/>
<path d="M610 1185 c0 -14 4 -25 9 -25 4 0 6 11 3 25 -2 14 -6 25 -8 25 -2 0
-4 -11 -4 -25z"/>
<path d="M610 1125 c0 -14 4 -25 9 -25 4 0 6 11 3 25 -2 14 -6 25 -8 25 -2 0
-4 -11 -4 -25z"/>
<path d="M610 1055 c0 -8 2 -15 4 -15 2 0 6 7 10 15 3 8 1 15 -4 15 -6 0 -10
-7 -10 -15z"/>
<path d="M610 989 c0 -5 5 -7 10 -4 6 3 10 8 10 11 0 2 -4 4 -10 4 -5 0 -10
-5 -10 -11z"/>
<path d="M611 934 c0 -11 3 -14 6 -6 3 7 2 16 -1 19 -3 4 -6 -2 -5 -13z"/>
<path d="M613 695 c0 -8 4 -12 9 -9 5 3 6 10 3 15 -9 13 -12 11 -12 -6z"/>
<path d="M611 644 c0 -11 3 -14 6 -6 3 7 2 16 -1 19 -3 4 -6 -2 -5 -13z"/>
<path d="M612 589 c1 -17 4 -25 8 -18 7 10 2 49 -5 49 -2 0 -3 -14 -3 -31z"/>
<path d="M612 520 c0 -14 2 -19 5 -12 2 6 2 18 0 25 -3 6 -5 1 -5 -13z"/>
<path d="M610 455 c0 -8 4 -15 10 -15 5 0 7 7 4 15 -4 8 -8 15 -10 15 -2 0 -4
-7 -4 -15z"/>
<path d="M612 400 c0 -14 2 -19 5 -12 2 6 2 18 0 25 -3 6 -5 1 -5 -13z"/>
<path d="M610 335 c0 -8 4 -15 10 -15 5 0 7 7 4 15 -4 8 -8 15 -10 15 -2 0 -4
-7 -4 -15z"/>
<path d="M612 280 c0 -14 2 -19 5 -12 2 6 2 18 0 25 -3 6 -5 1 -5 -13z"/>
<path d="M610 215 c0 -8 4 -15 10 -15 5 0 7 7 4 15 -4 8 -8 15 -10 15 -2 0 -4
-7 -4 -15z"/>
<path d="M612 160 c0 -14 2 -19 5 -12 2 6 2 18 0 25 -3 6 -5 1 -5 -13z"/>
<path d="M610 111 c0 -6 4 -13 10 -16 6 -3 7 1 4 9 -7 18 -14 21 -14 7z"/>
<path d="M610 9 c0 -5 5 -7 10 -4 6 3 10 8 10 11 0 2 -4 4 -10 4 -5 0 -10 -5
-10 -11z"/>
</g>
</svg>
